<?xml version="1.0" encoding="UTF-8" standalone="no"?>
<!DOCTYPE svg PUBLIC "-//W3C//DTD SVG 1.1//EN"
 "http://www.w3.org/Graphics/SVG/1.1/DTD/svg11.dtd">
<!-- Generated by graphviz version 2.40.1 (20161225.0304)
 -->
<!-- Title: nf_dag Pages: 1 -->
<svg width="454pt" height="802pt"
 viewBox="0.00 0.00 453.55 801.60" xmlns="http://www.w3.org/2000/svg" xmlns:xlink="http://www.w3.org/1999/xlink">
<g id="graph0" class="graph" transform="scale(1 1) rotate(0) translate(4 797.6)">
<title>nf_dag</title>
<polygon fill="#ffffff" stroke="transparent" points="-4,4 -4,-797.6 449.5473,-797.6 449.5473,4 -4,4"/>
<!-- p0 -->
<g id="node1" class="node">
<title>p0</title>
<ellipse fill="none" stroke="#000000" cx="163.5473" cy="-775.6" rx="48.9926" ry="18"/>
<text text-anchor="middle" x="163.5473" y="-771.9" font-family="Times,serif" font-size="14.00" fill="#000000">getalignments</text>
</g>
<!-- p1 -->
<g id="node2" class="node">
<title>p1</title>
<ellipse fill="none" stroke="#000000" cx="163.5473" cy="-703.1" rx="3.5" ry="3.5"/>
<text text-anchor="middle" x="151.5473" y="-710.4" font-family="Times,serif" font-size="14.00" fill="#000000">into</text>
</g>
<!-- p0&#45;&gt;p1 -->
<g id="edge1" class="edge">
<title>p0&#45;&gt;p1</title>
<path fill="none" stroke="#000000" d="M163.5473,-757.3052C163.5473,-744.7364 163.5473,-728.3149 163.5473,-716.8543"/>
<polygon fill="#000000" stroke="#000000" points="167.0474,-716.7824 163.5473,-706.7824 160.0474,-716.7825 167.0474,-716.7824"/>
<text text-anchor="middle" x="174.0473" y="-728.4" font-family="Times,serif" font-size="14.00" fill="#000000">align</text>
</g>
<!-- p3 -->
<g id="node3" class="node">
<title>p3</title>
<ellipse fill="none" stroke="#000000" cx="30.5473" cy="-576.6" rx="30.5947" ry="18"/>
<text text-anchor="middle" x="30.5473" y="-572.9" font-family="Times,serif" font-size="14.00" fill="#000000">fasttree</text>
</g>
<!-- p1&#45;&gt;p3 -->
<g id="edge2" class="edge">
<title>p1&#45;&gt;p3</title>
<path fill="none" stroke="#000000" d="M160.0519,-702.9088C143.1632,-701.9138 70.1883,-696.7793 54.5473,-681.6 34.1829,-661.8368 29.5287,-628.6063 29.1149,-604.8205"/>
<polygon fill="#000000" stroke="#000000" points="32.616,-604.6617 29.182,-594.6388 25.6161,-604.6155 32.616,-604.6617"/>
<text text-anchor="middle" x="91.0473" y="-670.4" font-family="Times,serif" font-size="14.00" fill="#000000">alignFASTTREE</text>
</g>
<!-- p7 -->
<g id="node4" class="node">
<title>p7</title>
<ellipse fill="none" stroke="#000000" cx="118.5473" cy="-576.6" rx="27" ry="18"/>
<text text-anchor="middle" x="118.5473" y="-572.9" font-family="Times,serif" font-size="14.00" fill="#000000">iqtree</text>
</g>
<!-- p1&#45;&gt;p7 -->
<g id="edge3" class="edge">
<title>p1&#45;&gt;p7</title>
<path fill="none" stroke="#000000" d="M160.3332,-701.3269C154.8925,-698.1443 143.9356,-690.9161 138.5473,-681.6 124.9739,-658.1321 120.3791,-627.2537 118.9356,-605.0657"/>
<polygon fill="#000000" stroke="#000000" points="122.4254,-604.7646 118.4546,-594.942 115.4332,-605.0969 122.4254,-604.7646"/>
<text text-anchor="middle" x="168.0473" y="-670.4" font-family="Times,serif" font-size="14.00" fill="#000000">alignIQTREE</text>
</g>
<!-- p4 -->
<g id="node5" class="node">
<title>p4</title>
<ellipse fill="none" stroke="#000000" cx="281.5473" cy="-630.6" rx="27" ry="18"/>
<text text-anchor="middle" x="281.5473" y="-626.9" font-family="Times,serif" font-size="14.00" fill="#000000">raxml</text>
</g>
<!-- p1&#45;&gt;p4 -->
<g id="edge4" class="edge">
<title>p1&#45;&gt;p4</title>
<path fill="none" stroke="#000000" d="M166.7035,-701.1608C178.7938,-693.7325 222.9772,-666.5859 252.8806,-648.213"/>
<polygon fill="#000000" stroke="#000000" points="254.9631,-651.0414 261.6511,-642.8243 251.2986,-645.0772 254.9631,-651.0414"/>
<text text-anchor="middle" x="252.0473" y="-670.4" font-family="Times,serif" font-size="14.00" fill="#000000">alignRAXML</text>
</g>
<!-- p5 -->
<g id="node6" class="node">
<title>p5</title>
<ellipse fill="none" stroke="#000000" cx="360.5473" cy="-630.6" rx="33.5952" ry="18"/>
<text text-anchor="middle" x="360.5473" y="-626.9" font-family="Times,serif" font-size="14.00" fill="#000000">tophylip</text>
</g>
<!-- p1&#45;&gt;p5 -->
<g id="edge5" class="edge">
<title>p1&#45;&gt;p5</title>
<path fill="none" stroke="#000000" d="M167.0908,-703.0138C182.0514,-702.5408 241.3114,-699.567 285.5473,-681.6 303.1859,-674.4359 320.8927,-662.6629 334.669,-652.2325"/>
<polygon fill="#000000" stroke="#000000" points="336.9713,-654.8755 342.7029,-645.9648 332.6656,-649.3563 336.9713,-654.8755"/>
<text text-anchor="middle" x="340.5473" y="-670.4" font-family="Times,serif" font-size="14.00" fill="#000000">alignPHYML</text>
</g>
<!-- p10 -->
<g id="node9" class="node">
<title>p10</title>
<ellipse fill="none" stroke="#000000" cx="51.5473" cy="-479.1" rx="3.5" ry="3.5"/>
<text text-anchor="middle" x="38.5473" y="-486.4" font-family="Times,serif" font-size="14.00" fill="#000000">map</text>
</g>
<!-- p3&#45;&gt;p10 -->
<g id="edge7" class="edge">
<title>p3&#45;&gt;p10</title>
<path fill="none" stroke="#000000" d="M34.399,-558.717C38.5152,-539.6062 44.947,-509.7443 48.6525,-492.54"/>
<polygon fill="#000000" stroke="#000000" points="52.1127,-493.0972 50.7968,-482.5844 45.2696,-491.6233 52.1127,-493.0972"/>
<text text-anchor="middle" x="62.0473" y="-518.9" font-family="Times,serif" font-size="14.00" fill="#000000">fasttree</text>
</g>
<!-- p12 -->
<g id="node13" class="node">
<title>p12</title>
<ellipse fill="none" stroke="#000000" cx="96.5473" cy="-450.1" rx="3.5" ry="3.5"/>
<text text-anchor="middle" x="83.5473" y="-457.4" font-family="Times,serif" font-size="14.00" fill="#000000">map</text>
</g>
<!-- p7&#45;&gt;p12 -->
<g id="edge11" class="edge">
<title>p7&#45;&gt;p12</title>
<path fill="none" stroke="#000000" d="M115.3952,-558.4756C110.9442,-532.8823 102.9161,-486.7207 98.9285,-463.7919"/>
<polygon fill="#000000" stroke="#000000" points="102.3389,-462.9744 97.1772,-453.722 95.4425,-464.1739 102.3389,-462.9744"/>
<text text-anchor="middle" x="124.5473" y="-518.9" font-family="Times,serif" font-size="14.00" fill="#000000">iqtree</text>
</g>
<!-- p14 -->
<g id="node10" class="node">
<title>p14</title>
<ellipse fill="none" stroke="#000000" cx="293.5473" cy="-450.1" rx="3.5" ry="3.5"/>
<text text-anchor="middle" x="280.5473" y="-457.4" font-family="Times,serif" font-size="14.00" fill="#000000">map</text>
</g>
<!-- p4&#45;&gt;p14 -->
<g id="edge8" class="edge">
<title>p4&#45;&gt;p14</title>
<path fill="none" stroke="#000000" d="M282.764,-612.2994C285.1731,-576.0612 290.5021,-495.9052 292.6368,-463.7948"/>
<polygon fill="#000000" stroke="#000000" points="296.1327,-463.9725 293.3038,-453.7623 289.1481,-463.5081 296.1327,-463.9725"/>
<text text-anchor="middle" x="302.0473" y="-518.9" font-family="Times,serif" font-size="14.00" fill="#000000">raxml</text>
</g>
<!-- p6 -->
<g id="node11" class="node">
<title>p6</title>
<ellipse fill="none" stroke="#000000" cx="358.5473" cy="-522.6" rx="27.8951" ry="18"/>
<text text-anchor="middle" x="358.5473" y="-518.9" font-family="Times,serif" font-size="14.00" fill="#000000">phyml</text>
</g>
<!-- p5&#45;&gt;p6 -->
<g id="edge9" class="edge">
<title>p5&#45;&gt;p6</title>
<path fill="none" stroke="#000000" d="M360.208,-612.2793C359.8958,-595.421 359.4281,-570.1651 359.0685,-550.747"/>
<polygon fill="#000000" stroke="#000000" points="362.5662,-550.5836 358.8816,-540.6502 355.5674,-550.7133 362.5662,-550.5836"/>
<text text-anchor="middle" x="402.5473" y="-572.9" font-family="Times,serif" font-size="14.00" fill="#000000">alignPHYMLPhylip</text>
</g>
<!-- p2 -->
<g id="node7" class="node">
<title>p2</title>
<ellipse fill="none" stroke="#000000" cx="193.5473" cy="-630.6" rx="42.7926" ry="18"/>
<text text-anchor="middle" x="193.5473" y="-626.9" font-family="Times,serif" font-size="14.00" fill="#000000">getbesttrees</text>
</g>
<!-- p8 -->
<g id="node8" class="node">
<title>p8</title>
<ellipse fill="none" stroke="#000000" cx="193.5473" cy="-522.6" rx="3.5" ry="3.5"/>
<text text-anchor="middle" x="180.5473" y="-529.9" font-family="Times,serif" font-size="14.00" fill="#000000">map</text>
</g>
<!-- p2&#45;&gt;p8 -->
<g id="edge6" class="edge">
<title>p2&#45;&gt;p8</title>
<path fill="none" stroke="#000000" d="M193.5473,-612.2793C193.5473,-590.755 193.5473,-555.5415 193.5473,-536.2671"/>
<polygon fill="#000000" stroke="#000000" points="197.0474,-536.2068 193.5473,-526.2068 190.0474,-536.2069 197.0474,-536.2068"/>
<text text-anchor="middle" x="210.0473" y="-572.9" font-family="Times,serif" font-size="14.00" fill="#000000">besttree</text>
</g>
<!-- p9 -->
<g id="node14" class="node">
<title>p9</title>
<ellipse fill="none" stroke="#000000" cx="193.5473" cy="-450.1" rx="3.5" ry="3.5"/>
<text text-anchor="middle" x="181.5473" y="-457.4" font-family="Times,serif" font-size="14.00" fill="#000000">into</text>
</g>
<!-- p8&#45;&gt;p9 -->
<g id="edge12" class="edge">
<title>p8&#45;&gt;p9</title>
<path fill="none" stroke="#000000" d="M193.5473,-518.7021C193.5473,-508.577 193.5473,-481.0543 193.5473,-464.1062"/>
<polygon fill="#000000" stroke="#000000" points="197.0474,-463.6705 193.5473,-453.6706 190.0474,-463.6706 197.0474,-463.6705"/>
</g>
<!-- p11 -->
<g id="node15" class="node">
<title>p11</title>
<ellipse fill="none" stroke="#000000" cx="100.5473" cy="-392.1" rx="3.5" ry="3.5"/>
<text text-anchor="middle" x="88.5473" y="-399.4" font-family="Times,serif" font-size="14.00" fill="#000000">join</text>
</g>
<!-- p10&#45;&gt;p11 -->
<g id="edge17" class="edge">
<title>p10&#45;&gt;p11</title>
<path fill="none" stroke="#000000" d="M53.4083,-475.7957C59.9876,-464.1142 82.3653,-424.3823 93.7603,-404.1504"/>
<polygon fill="#000000" stroke="#000000" points="96.8266,-405.8383 98.6844,-395.4076 90.7274,-402.4031 96.8266,-405.8383"/>
</g>
<!-- p15 -->
<g id="node17" class="node">
<title>p15</title>
<ellipse fill="none" stroke="#000000" cx="217.5473" cy="-392.1" rx="3.5" ry="3.5"/>
<text text-anchor="middle" x="205.5473" y="-399.4" font-family="Times,serif" font-size="14.00" fill="#000000">join</text>
</g>
<!-- p14&#45;&gt;p15 -->
<g id="edge21" class="edge">
<title>p14&#45;&gt;p15</title>
<path fill="none" stroke="#000000" d="M293.6214,-446.5607C293.575,-439.3642 292.4345,-422.9197 283.5473,-413.6 276.2846,-405.9838 248.2111,-398.7524 231.1037,-394.9258"/>
<polygon fill="#000000" stroke="#000000" points="231.7296,-391.4807 221.2199,-392.8208 230.2714,-398.3272 231.7296,-391.4807"/>
</g>
<!-- p16 -->
<g id="node12" class="node">
<title>p16</title>
<ellipse fill="none" stroke="#000000" cx="331.5473" cy="-450.1" rx="3.5" ry="3.5"/>
<text text-anchor="middle" x="318.5473" y="-457.4" font-family="Times,serif" font-size="14.00" fill="#000000">map</text>
</g>
<!-- p6&#45;&gt;p16 -->
<g id="edge10" class="edge">
<title>p6&#45;&gt;p16</title>
<path fill="none" stroke="#000000" d="M352.0113,-505.0498C347.1888,-492.1004 340.7336,-474.7669 336.3729,-463.0576"/>
<polygon fill="#000000" stroke="#000000" points="339.6184,-461.7435 332.8484,-453.5938 333.0585,-464.1865 339.6184,-461.7435"/>
<text text-anchor="middle" x="358.0473" y="-475.4" font-family="Times,serif" font-size="14.00" fill="#000000">phyml</text>
</g>
<!-- p17 -->
<g id="node18" class="node">
<title>p17</title>
<ellipse fill="none" stroke="#000000" cx="277.5473" cy="-392.1" rx="3.5" ry="3.5"/>
<text text-anchor="middle" x="265.5473" y="-399.4" font-family="Times,serif" font-size="14.00" fill="#000000">join</text>
</g>
<!-- p16&#45;&gt;p17 -->
<g id="edge23" class="edge">
<title>p16&#45;&gt;p17</title>
<path fill="none" stroke="#000000" d="M330.3642,-446.726C327.8159,-439.8345 321.2433,-423.9229 311.5473,-413.6 305.5227,-407.1859 297.1921,-401.8774 290.285,-398.1399"/>
<polygon fill="#000000" stroke="#000000" points="291.655,-394.913 281.1385,-393.6268 288.5575,-401.1904 291.655,-394.913"/>
</g>
<!-- p13 -->
<g id="node16" class="node">
<title>p13</title>
<ellipse fill="none" stroke="#000000" cx="162.5473" cy="-392.1" rx="3.5" ry="3.5"/>
<text text-anchor="middle" x="150.5473" y="-399.4" font-family="Times,serif" font-size="14.00" fill="#000000">join</text>
</g>
<!-- p12&#45;&gt;p13 -->
<g id="edge19" class="edge">
<title>p12&#45;&gt;p13</title>
<path fill="none" stroke="#000000" d="M96.0535,-446.6182C95.2527,-439.5279 94.4886,-423.2688 102.5473,-413.6 108.5879,-406.3525 133.2051,-399.2202 148.9693,-395.2657"/>
<polygon fill="#000000" stroke="#000000" points="149.9285,-398.6352 158.8444,-392.9118 148.3053,-391.826 149.9285,-398.6352"/>
</g>
<!-- p9&#45;&gt;p11 -->
<g id="edge13" class="edge">
<title>p9&#45;&gt;p11</title>
<path fill="none" stroke="#000000" d="M190.1487,-449.0822C181.6915,-446.4638 159.1842,-438.9658 142.5473,-428.6 130.3946,-421.0281 118.2351,-409.9887 110.1505,-402.0353"/>
<polygon fill="#000000" stroke="#000000" points="112.4727,-399.4046 102.9717,-394.7162 107.4753,-404.3062 112.4727,-399.4046"/>
<text text-anchor="middle" x="154.0473" y="-417.4" font-family="Times,serif" font-size="14.00" fill="#000000">best1</text>
</g>
<!-- p9&#45;&gt;p13 -->
<g id="edge14" class="edge">
<title>p9&#45;&gt;p13</title>
<path fill="none" stroke="#000000" d="M190.8803,-447.5515C187.0295,-443.7454 179.8981,-436.2061 175.5473,-428.6 171.4391,-421.4181 168.2776,-412.7115 166.1014,-405.6033"/>
<polygon fill="#000000" stroke="#000000" points="169.4043,-404.4139 163.3761,-395.7011 162.6552,-406.2714 169.4043,-404.4139"/>
<text text-anchor="middle" x="187.0473" y="-417.4" font-family="Times,serif" font-size="14.00" fill="#000000">best2</text>
</g>
<!-- p9&#45;&gt;p15 -->
<g id="edge15" class="edge">
<title>p9&#45;&gt;p15</title>
<path fill="none" stroke="#000000" d="M194.9767,-446.6455C198.286,-438.648 206.6155,-418.5184 212.1767,-405.0789"/>
<polygon fill="#000000" stroke="#000000" points="215.5659,-406.0421 216.1554,-395.4637 209.0978,-403.3656 215.5659,-406.0421"/>
<text text-anchor="middle" x="219.0473" y="-417.4" font-family="Times,serif" font-size="14.00" fill="#000000">best3</text>
</g>
<!-- p9&#45;&gt;p17 -->
<g id="edge16" class="edge">
<title>p9&#45;&gt;p17</title>
<path fill="none" stroke="#000000" d="M197.0959,-448.5622C204.3919,-445.3321 221.4871,-437.4089 234.5473,-428.6 246.5799,-420.4842 259.0936,-409.5308 267.4977,-401.7461"/>
<polygon fill="#000000" stroke="#000000" points="270.1559,-404.0485 274.9954,-394.6235 265.3347,-398.9733 270.1559,-404.0485"/>
<text text-anchor="middle" x="264.0473" y="-417.4" font-family="Times,serif" font-size="14.00" fill="#000000">best4</text>
</g>
<!-- p18 -->
<g id="node19" class="node">
<title>p18</title>
<ellipse fill="none" stroke="#000000" cx="189.5473" cy="-334.1" rx="3.5" ry="3.5"/>
<text text-anchor="middle" x="177.5473" y="-341.4" font-family="Times,serif" font-size="14.00" fill="#000000">mix</text>
</g>
<!-- p11&#45;&gt;p18 -->
<g id="edge18" class="edge">
<title>p11&#45;&gt;p18</title>
<path fill="none" stroke="#000000" d="M101.2025,-388.501C102.7224,-381.1944 107.1796,-364.5574 117.5473,-355.6 126.3317,-348.0105 157.7018,-340.5821 176.0077,-336.7591"/>
<polygon fill="#000000" stroke="#000000" points="176.8511,-340.1598 185.9702,-334.766 175.4779,-333.2958 176.8511,-340.1598"/>
<text text-anchor="middle" x="137.0473" y="-359.4" font-family="Times,serif" font-size="14.00" fill="#000000">fastcomp</text>
</g>
<!-- p13&#45;&gt;p18 -->
<g id="edge20" class="edge">
<title>p13&#45;&gt;p18</title>
<path fill="none" stroke="#000000" d="M161.7035,-388.4482C160.3179,-381.6014 158.2136,-366.5403 163.5473,-355.6 166.4879,-349.5684 172.0035,-344.6295 177.2005,-341.0132"/>
<polygon fill="#000000" stroke="#000000" points="179.2384,-343.8733 186.0399,-335.7499 175.657,-337.8588 179.2384,-343.8733"/>
<text text-anchor="middle" x="179.5473" y="-359.4" font-family="Times,serif" font-size="14.00" fill="#000000">iqcomp</text>
</g>
<!-- p15&#45;&gt;p18 -->
<g id="edge22" class="edge">
<title>p15&#45;&gt;p18</title>
<path fill="none" stroke="#000000" d="M215.8796,-388.6455C211.9797,-380.5672 202.1041,-360.1105 195.6173,-346.6737"/>
<polygon fill="#000000" stroke="#000000" points="198.6706,-344.9476 191.1712,-337.4637 192.3668,-347.9909 198.6706,-344.9476"/>
<text text-anchor="middle" x="225.0473" y="-359.4" font-family="Times,serif" font-size="14.00" fill="#000000">raxcomp</text>
</g>
<!-- p17&#45;&gt;p18 -->
<g id="edge24" class="edge">
<title>p17&#45;&gt;p18</title>
<path fill="none" stroke="#000000" d="M275.7869,-388.9906C271.7038,-382.0417 260.9094,-365.1174 247.5473,-355.6 234.0331,-345.9743 215.7056,-340.1362 203.2968,-337.0199"/>
<polygon fill="#000000" stroke="#000000" points="203.7817,-333.5418 193.2585,-334.7713 202.2517,-340.3726 203.7817,-333.5418"/>
<text text-anchor="middle" x="281.5473" y="-359.4" font-family="Times,serif" font-size="14.00" fill="#000000">phycomp</text>
</g>
<!-- p19 -->
<g id="node20" class="node">
<title>p19</title>
<ellipse fill="none" stroke="#000000" cx="189.5473" cy="-261.6" rx="46.5926" ry="18"/>
<text text-anchor="middle" x="189.5473" y="-257.9" font-family="Times,serif" font-size="14.00" fill="#000000">comparetrees</text>
</g>
<!-- p18&#45;&gt;p19 -->
<g id="edge25" class="edge">
<title>p18&#45;&gt;p19</title>
<path fill="none" stroke="#000000" d="M189.5473,-330.2021C189.5473,-322.6027 189.5473,-305.203 189.5473,-289.8295"/>
<polygon fill="#000000" stroke="#000000" points="193.0474,-289.6553 189.5473,-279.6553 186.0474,-289.6553 193.0474,-289.6553"/>
<text text-anchor="middle" x="208.0473" y="-301.4" font-family="Times,serif" font-size="14.00" fill="#000000">compare</text>
</g>
<!-- p20 -->
<g id="node21" class="node">
<title>p20</title>
<ellipse fill="none" stroke="#000000" cx="189.5473" cy="-189.1" rx="3.5" ry="3.5"/>
<text text-anchor="middle" x="163.5473" y="-196.4" font-family="Times,serif" font-size="14.00" fill="#000000">collectFile</text>
</g>
<!-- p19&#45;&gt;p20 -->
<g id="edge26" class="edge">
<title>p19&#45;&gt;p20</title>
<path fill="none" stroke="#000000" d="M189.5473,-243.3052C189.5473,-230.7364 189.5473,-214.3149 189.5473,-202.8543"/>
<polygon fill="#000000" stroke="#000000" points="193.0474,-202.7824 189.5473,-192.7824 186.0474,-202.7825 193.0474,-202.7824"/>
<text text-anchor="middle" x="219.5473" y="-214.4" font-family="Times,serif" font-size="14.00" fill="#000000">compareresult</text>
</g>
<!-- p21 -->
<g id="node22" class="node">
<title>p21</title>
<ellipse fill="none" stroke="#000000" cx="189.5473" cy="-145.1" rx="3.5" ry="3.5"/>
<text text-anchor="middle" x="177.5473" y="-152.4" font-family="Times,serif" font-size="14.00" fill="#000000">into</text>
</g>
<!-- p20&#45;&gt;p21 -->
<g id="edge27" class="edge">
<title>p20&#45;&gt;p21</title>
<path fill="none" stroke="#000000" d="M189.5473,-185.3486C189.5473,-179.5686 189.5473,-168.1915 189.5473,-159.0038"/>
<polygon fill="#000000" stroke="#000000" points="193.0474,-158.8419 189.5473,-148.8419 186.0474,-158.842 193.0474,-158.8419"/>
</g>
<!-- p22 -->
<g id="node23" class="node">
<title>p22</title>
<ellipse fill="none" stroke="#000000" cx="163.5473" cy="-72.6" rx="3.5" ry="3.5"/>
<text text-anchor="middle" x="140.0473" y="-79.9" font-family="Times,serif" font-size="14.00" fill="#000000">subscribe</text>
</g>
<!-- p21&#45;&gt;p22 -->
<g id="edge28" class="edge">
<title>p21&#45;&gt;p22</title>
<path fill="none" stroke="#000000" d="M186.1631,-143.416C180.4656,-140.3678 169.132,-133.3368 164.5473,-123.6 159.0157,-111.8522 159.4926,-96.8312 160.9098,-86.1403"/>
<polygon fill="#000000" stroke="#000000" points="164.4019,-86.4923 162.7017,-76.0348 157.5094,-85.27 164.4019,-86.4923"/>
<text text-anchor="middle" x="179.0473" y="-112.4" font-family="Times,serif" font-size="14.00" fill="#000000">result1</text>
</g>
<!-- p23 -->
<g id="node24" class="node">
<title>p23</title>
<ellipse fill="none" stroke="#000000" cx="215.5473" cy="-72.6" rx="27" ry="18"/>
<text text-anchor="middle" x="215.5473" y="-68.9" font-family="Times,serif" font-size="14.00" fill="#000000">plot</text>
</g>
<!-- p21&#45;&gt;p23 -->
<g id="edge29" class="edge">
<title>p21&#45;&gt;p23</title>
<path fill="none" stroke="#000000" d="M190.8013,-141.6032C193.5062,-134.0607 200.1059,-115.6578 205.8097,-99.7529"/>
<polygon fill="#000000" stroke="#000000" points="209.1214,-100.8865 209.2026,-90.292 202.5322,-98.5235 209.1214,-100.8865"/>
<text text-anchor="middle" x="219.5473" y="-112.4" font-family="Times,serif" font-size="14.00" fill="#000000">resultall</text>
</g>
<!-- p24 -->
<g id="node25" class="node">
<title>p24</title>
<ellipse fill="#000000" stroke="#000000" cx="215.5473" cy="-1.8" rx="1.8" ry="1.8"/>
</g>
<!-- p23&#45;&gt;p24 -->
<g id="edge30" class="edge">
<title>p23&#45;&gt;p24</title>
<path fill="none" stroke="#000000" d="M215.5473,-54.3672C215.5473,-41.7838 215.5473,-25.3818 215.5473,-14.2703"/>
<polygon fill="#000000" stroke="#000000" points="219.0474,-13.9527 215.5473,-3.9527 212.0474,-13.9527 219.0474,-13.9527"/>
<text text-anchor="middle" x="226.0473" y="-25.4" font-family="Times,serif" font-size="14.00" fill="#000000">plots</text>
</g>
</g>
</svg>
